%TF.GenerationSoftware,Altium Limited,Altium Designer,18.1.9 (240)*%
G04 Layer_Color=65535*
%FSLAX43Y43*%
%MOMM*%
%TF.FileFunction,Legend,Top*%
%TF.Part,Single*%
G01*
G75*
%TA.AperFunction,NonConductor*%
%ADD55C,0.250*%
%ADD56C,0.127*%
%ADD57C,0.200*%
%ADD58C,0.254*%
%ADD59C,0.203*%
%ADD60C,0.180*%
D55*
X30693Y96276D02*
G03*
X30693Y96276I-125J0D01*
G01*
X119051Y124833D02*
G03*
X119051Y124833I-125J0D01*
G01*
X119688Y107128D02*
G03*
X119688Y107128I-125J0D01*
G01*
X122854Y118600D02*
G03*
X122854Y118600I-125J0D01*
G01*
X38493Y82591D02*
G03*
X38493Y82591I-125J0D01*
G01*
D56*
X51638Y33020D02*
X78232D01*
Y40310D01*
X72923Y32995D02*
Y40259D01*
X65608Y33045D02*
Y40310D01*
X51638Y35763D02*
X78232Y35763D01*
X59842Y33045D02*
Y40310D01*
X51638Y38227D02*
X78232Y38227D01*
X51638Y37440D02*
Y40310D01*
Y33020D02*
Y37440D01*
Y40310D02*
X78232D01*
X74007Y34739D02*
X73499D01*
X73330Y34569D01*
Y34231D01*
X73499Y34061D01*
X74007D01*
X74345D02*
X74684D01*
X74515D01*
Y35077D01*
X74345D01*
X75361Y34061D02*
X75700D01*
X75869Y34231D01*
Y34569D01*
X75700Y34739D01*
X75361D01*
X75192Y34569D01*
Y34231D01*
X75361Y34061D01*
X76208D02*
X76715D01*
X76885Y34231D01*
X76715Y34400D01*
X76377D01*
X76208Y34569D01*
X76377Y34739D01*
X76885D01*
X77731Y34061D02*
X77392D01*
X77223Y34231D01*
Y34569D01*
X77392Y34739D01*
X77731D01*
X77900Y34569D01*
Y34400D01*
X77223D01*
X73829Y36816D02*
X74168D01*
X74337Y36985D01*
Y37323D01*
X74168Y37493D01*
X73829D01*
X73660Y37323D01*
Y36985D01*
X73829Y36816D01*
X74676Y36477D02*
Y37493D01*
X75184D01*
X75353Y37323D01*
Y36985D01*
X75184Y36816D01*
X74676D01*
X76199D02*
X75861D01*
X75691Y36985D01*
Y37323D01*
X75861Y37493D01*
X76199D01*
X76368Y37323D01*
Y37154D01*
X75691D01*
X76707Y36816D02*
Y37493D01*
X77215D01*
X77384Y37323D01*
Y36816D01*
X66370Y33528D02*
X65862D01*
X66370Y34036D01*
Y34163D01*
X66243Y34290D01*
X65989D01*
X65862Y34163D01*
X66624Y33909D02*
X67132D01*
X67386Y34163D02*
X67513Y34290D01*
X67767D01*
X67894Y34163D01*
Y34036D01*
X67767Y33909D01*
X67640D01*
X67767D01*
X67894Y33782D01*
Y33655D01*
X67767Y33528D01*
X67513D01*
X67386Y33655D01*
X69417Y34036D02*
X69036D01*
X68909Y33909D01*
Y33655D01*
X69036Y33528D01*
X69417D01*
X69671D02*
X69925D01*
X69798D01*
Y34290D01*
X69671D01*
X70433Y33528D02*
X70687D01*
X70814Y33655D01*
Y33909D01*
X70687Y34036D01*
X70433D01*
X70306Y33909D01*
Y33655D01*
X70433Y33528D01*
X71068D02*
X71448D01*
X71575Y33655D01*
X71448Y33782D01*
X71194D01*
X71068Y33909D01*
X71194Y34036D01*
X71575D01*
X72210Y33528D02*
X71956D01*
X71829Y33655D01*
Y33909D01*
X71956Y34036D01*
X72210D01*
X72337Y33909D01*
Y33782D01*
X71829D01*
X65964Y34722D02*
X66218D01*
X66091D01*
Y35484D01*
X65964Y35357D01*
X66599Y35103D02*
X67106D01*
X67868Y34722D02*
X67360D01*
X67868Y35230D01*
Y35357D01*
X67741Y35484D01*
X67487D01*
X67360Y35357D01*
X69011Y34722D02*
X69265D01*
X69392Y34849D01*
Y35103D01*
X69265Y35230D01*
X69011D01*
X68884Y35103D01*
Y34849D01*
X69011Y34722D01*
X69646Y34468D02*
Y35230D01*
X70026D01*
X70153Y35103D01*
Y34849D01*
X70026Y34722D01*
X69646D01*
X70788D02*
X70534D01*
X70407Y34849D01*
Y35103D01*
X70534Y35230D01*
X70788D01*
X70915Y35103D01*
Y34976D01*
X70407D01*
X71169Y34722D02*
Y35230D01*
X71550D01*
X71677Y35103D01*
Y34722D01*
X66472Y36068D02*
X65964D01*
X66472Y36576D01*
Y36703D01*
X66345Y36830D01*
X66091D01*
X65964Y36703D01*
X66726Y36449D02*
X67233D01*
X67487Y36703D02*
X67614Y36830D01*
X67868D01*
X67995Y36703D01*
Y36576D01*
X67868Y36449D01*
X67741D01*
X67868D01*
X67995Y36322D01*
Y36195D01*
X67868Y36068D01*
X67614D01*
X67487Y36195D01*
X69138Y36068D02*
X69392D01*
X69519Y36195D01*
Y36449D01*
X69392Y36576D01*
X69138D01*
X69011Y36449D01*
Y36195D01*
X69138Y36068D01*
X69773Y35814D02*
Y36576D01*
X70153D01*
X70280Y36449D01*
Y36195D01*
X70153Y36068D01*
X69773D01*
X70915D02*
X70661D01*
X70534Y36195D01*
Y36449D01*
X70661Y36576D01*
X70915D01*
X71042Y36449D01*
Y36322D01*
X70534D01*
X71296Y36068D02*
Y36576D01*
X71677D01*
X71804Y36449D01*
Y36068D01*
X66040Y37109D02*
X66294D01*
X66167D01*
Y37871D01*
X66040Y37744D01*
X66675Y37490D02*
X67183D01*
X67944Y37109D02*
X67437D01*
X67944Y37617D01*
Y37744D01*
X67817Y37871D01*
X67564D01*
X67437Y37744D01*
X69468Y37617D02*
X69087D01*
X68960Y37490D01*
Y37236D01*
X69087Y37109D01*
X69468D01*
X69722D02*
X69976D01*
X69849D01*
Y37871D01*
X69722D01*
X70484Y37109D02*
X70737D01*
X70864Y37236D01*
Y37490D01*
X70737Y37617D01*
X70484D01*
X70357Y37490D01*
Y37236D01*
X70484Y37109D01*
X71118D02*
X71499D01*
X71626Y37236D01*
X71499Y37363D01*
X71245D01*
X71118Y37490D01*
X71245Y37617D01*
X71626D01*
X72261Y37109D02*
X72007D01*
X71880Y37236D01*
Y37490D01*
X72007Y37617D01*
X72261D01*
X72388Y37490D01*
Y37363D01*
X71880D01*
X61104Y34510D02*
X60596D01*
X60427Y34341D01*
Y34002D01*
X60596Y33833D01*
X61104D01*
X61442D02*
X61781D01*
X61612D01*
Y34848D01*
X61442D01*
X62458Y33833D02*
X62797D01*
X62966Y34002D01*
Y34341D01*
X62797Y34510D01*
X62458D01*
X62289Y34341D01*
Y34002D01*
X62458Y33833D01*
X63304D02*
X63812D01*
X63981Y34002D01*
X63812Y34171D01*
X63474D01*
X63304Y34341D01*
X63474Y34510D01*
X63981D01*
X64828Y33833D02*
X64489D01*
X64320Y34002D01*
Y34341D01*
X64489Y34510D01*
X64828D01*
X64997Y34341D01*
Y34171D01*
X64320D01*
X61104Y36779D02*
X61442D01*
X61612Y36948D01*
Y37287D01*
X61442Y37456D01*
X61104D01*
X60935Y37287D01*
Y36948D01*
X61104Y36779D01*
X61950Y36441D02*
Y37456D01*
X62458D01*
X62627Y37287D01*
Y36948D01*
X62458Y36779D01*
X61950D01*
X63474D02*
X63135D01*
X62966Y36948D01*
Y37287D01*
X63135Y37456D01*
X63474D01*
X63643Y37287D01*
Y37118D01*
X62966D01*
X63982Y36779D02*
Y37456D01*
X64489D01*
X64659Y37287D01*
Y36779D01*
X56100Y33782D02*
X55423D01*
X56100Y34459D01*
Y34628D01*
X55931Y34798D01*
X55592D01*
X55423Y34628D01*
X55499Y36525D02*
X55838D01*
X55668D01*
Y37541D01*
X55499Y37372D01*
D57*
X31168Y92746D02*
X37768D01*
X31168D02*
Y95251D01*
Y97301D02*
Y99736D01*
X37768Y97301D02*
Y99736D01*
Y92746D02*
Y95251D01*
X31168Y99736D02*
X33443D01*
X35493D02*
X37768D01*
X45024Y66087D02*
Y72487D01*
X51424Y66087D02*
Y72487D01*
X46924Y66087D02*
X49524D01*
X46924Y72487D02*
X49524D01*
X119226Y125633D02*
Y126633D01*
X120026D01*
X122226Y125633D02*
Y126633D01*
X121426D02*
X122226D01*
X119262Y121376D02*
Y121476D01*
X120362Y121376D02*
Y121476D01*
X121501Y103514D02*
X121601D01*
X121501Y104614D02*
X121601D01*
X121251Y100800D02*
Y100900D01*
X120151Y100800D02*
Y100900D01*
X122784Y101143D02*
X125324D01*
Y83363D02*
Y101143D01*
X122784Y83363D02*
X125324D01*
X122784D02*
Y101143D01*
X65756Y72687D02*
X68356D01*
X65756Y66287D02*
X68356D01*
X70256D02*
Y72687D01*
X63856Y66287D02*
Y72687D01*
X73118Y74282D02*
Y74382D01*
X72018Y74282D02*
Y74382D01*
X101879Y28728D02*
Y35128D01*
X95479Y28728D02*
Y35128D01*
X97379D02*
X99979D01*
X97379Y28728D02*
X99979D01*
X93488Y36691D02*
Y36791D01*
X92338Y36691D02*
Y36791D01*
X90085Y36716D02*
Y36816D01*
X88985Y36716D02*
Y36816D01*
X85607Y36766D02*
Y36866D01*
X86707Y36766D02*
Y36866D01*
X71374Y41097D02*
Y43587D01*
X78994Y41097D02*
Y43587D01*
X71374D02*
X78994D01*
X71374Y41097D02*
X78994D01*
X122263Y108828D02*
X123013D01*
Y107928D02*
Y108828D01*
X119913D02*
X120663D01*
X119913Y107928D02*
Y108828D01*
X122419Y112916D02*
Y113016D01*
X121319Y112916D02*
Y113016D01*
X122429Y116800D02*
Y117800D01*
X121629Y116800D02*
X122429D01*
X119429D02*
Y117800D01*
Y116800D02*
X120229D01*
X60598Y41071D02*
X65608D01*
X60598Y43561D02*
X65608D01*
Y41071D02*
Y43561D01*
X60598Y41071D02*
Y43561D01*
X51048Y41097D02*
Y43587D01*
X56058Y41097D02*
Y43587D01*
X51048D02*
X56058D01*
X51048Y41097D02*
X56058D01*
X46469Y50681D02*
Y57681D01*
X39069Y50681D02*
Y57681D01*
Y50681D02*
X46469D01*
X39574Y58081D02*
X40224D01*
X39574D02*
X39649Y57681D01*
X40149D02*
X40224Y58081D01*
X39069Y57681D02*
X39649D01*
X45314Y58081D02*
X45389Y57681D01*
X45889D02*
X45964Y58081D01*
X45314D02*
X45964D01*
X45889Y57681D02*
X46469D01*
X40149D02*
X45389D01*
X112642Y74155D02*
Y74255D01*
X111542Y74155D02*
Y74255D01*
X91273Y74155D02*
Y74255D01*
X92373Y74155D02*
Y74255D01*
X53095Y74093D02*
Y74193D01*
X54195Y74093D02*
Y74193D01*
X103008Y66150D02*
Y72550D01*
X109408Y66150D02*
Y72550D01*
X104908Y66150D02*
X107508D01*
X104908Y72550D02*
X107508D01*
X83124Y66150D02*
Y72550D01*
X89524Y66150D02*
Y72550D01*
X85024Y66150D02*
X87624D01*
X85024Y72550D02*
X87624D01*
X31168Y79131D02*
X33443D01*
X35493D02*
X37768D01*
X31168Y83616D02*
Y86121D01*
Y79131D02*
Y81566D01*
X37768Y79131D02*
Y81566D01*
Y83616D02*
Y86121D01*
X31168D02*
X37768D01*
X126878Y91929D02*
X126712Y91762D01*
Y91429D01*
X126878Y91262D01*
X127545D01*
X127711Y91429D01*
Y91762D01*
X127545Y91929D01*
X127711Y92428D02*
Y92762D01*
X127545Y92928D01*
X127211D01*
X127045Y92762D01*
Y92428D01*
X127211Y92262D01*
X127545D01*
X127711Y92428D01*
Y93262D02*
X127045D01*
Y93761D01*
X127211Y93928D01*
X127711D01*
Y94261D02*
X127045D01*
Y94761D01*
X127211Y94928D01*
X127711D01*
Y95261D02*
X127545D01*
Y95428D01*
X127711D01*
Y95261D01*
X128044Y97094D02*
X127045D01*
Y97593D01*
X127211Y97760D01*
X127545D01*
X127711Y97593D01*
Y97094D01*
X127045Y98093D02*
X127711D01*
X127378D01*
X127211Y98260D01*
X127045Y98427D01*
Y98593D01*
X127711Y99260D02*
Y99593D01*
X127545Y99759D01*
X127211D01*
X127045Y99593D01*
Y99260D01*
X127211Y99093D01*
X127545D01*
X127711Y99260D01*
X128044Y100426D02*
Y100593D01*
X127878Y100759D01*
X127045D01*
Y100259D01*
X127211Y100093D01*
X127545D01*
X127711Y100259D01*
Y100759D01*
X78994Y65490D02*
Y64491D01*
X79327Y64824D01*
X79660Y64491D01*
Y65490D01*
X80660Y64491D02*
X79994D01*
X80660Y65157D01*
Y65324D01*
X80494Y65490D01*
X80160D01*
X79994Y65324D01*
X80993Y64324D02*
X81660D01*
X81993Y64491D02*
X82326D01*
X82160D01*
Y65490D01*
X81993Y65324D01*
X56693Y68995D02*
Y68162D01*
X56859Y67996D01*
X57193D01*
X57359Y68162D01*
Y68995D01*
X57692Y68829D02*
X57859Y68995D01*
X58192D01*
X58359Y68829D01*
Y68662D01*
X58192Y68496D01*
X58026D01*
X58192D01*
X58359Y68329D01*
Y68162D01*
X58192Y67996D01*
X57859D01*
X57692Y68162D01*
X58692Y67996D02*
Y68662D01*
X59025Y68995D01*
X59359Y68662D01*
Y67996D01*
Y68496D01*
X58692D01*
X59692Y67829D02*
X60358D01*
X60692Y67996D02*
X61025D01*
X60858D01*
Y68995D01*
X60692Y68829D01*
X56896Y63687D02*
Y62854D01*
X57063Y62687D01*
X57396D01*
X57562Y62854D01*
Y63687D01*
X58562Y62687D02*
X57896D01*
X58562Y63354D01*
Y63520D01*
X58396Y63687D01*
X58062D01*
X57896Y63520D01*
X58895Y62521D02*
X59562D01*
X59895Y62687D02*
Y63687D01*
X60561Y62687D01*
Y63687D01*
X61561Y63520D02*
X61395Y63687D01*
X61061D01*
X60895Y63520D01*
Y62854D01*
X61061Y62687D01*
X61395D01*
X61561Y62854D01*
X69469Y46770D02*
Y45771D01*
X69802Y46104D01*
X70135Y45771D01*
Y46770D01*
X71135Y45771D02*
X70469D01*
X71135Y46437D01*
Y46604D01*
X70969Y46770D01*
X70635D01*
X70469Y46604D01*
X71468Y45604D02*
X72135D01*
X72468Y46604D02*
X72635Y46770D01*
X72968D01*
X73134Y46604D01*
Y46437D01*
X72968Y46271D01*
X72801D01*
X72968D01*
X73134Y46104D01*
Y45937D01*
X72968Y45771D01*
X72635D01*
X72468Y45937D01*
X131106Y87306D02*
Y86639D01*
X131606D01*
X131439Y86973D01*
Y87139D01*
X131606Y87306D01*
X131939D01*
X132105Y87139D01*
Y86806D01*
X131939Y86639D01*
X131106Y87639D02*
X131772D01*
X132105Y87972D01*
X131772Y88306D01*
X131106D01*
X71679Y64440D02*
Y65439D01*
X72179D01*
X72345Y65273D01*
Y64940D01*
X72179Y64773D01*
X71679D01*
X72678Y64273D02*
X73345D01*
X73678Y65439D02*
Y64440D01*
X74178D01*
X74345Y64606D01*
Y65273D01*
X74178Y65439D01*
X73678D01*
X75344Y65273D02*
X75178Y65439D01*
X74844D01*
X74678Y65273D01*
Y64606D01*
X74844Y64440D01*
X75178D01*
X75344Y64606D01*
X76344Y65439D02*
X75678D01*
Y64940D01*
X76011D01*
X75678D01*
Y64440D01*
X39224Y28341D02*
X39057Y28508D01*
X38724D01*
X38557Y28341D01*
Y27675D01*
X38724Y27508D01*
X39057D01*
X39224Y27675D01*
Y28008D01*
X38890D01*
X39557Y27508D02*
Y28508D01*
X40223Y27508D01*
Y28508D01*
X40557D02*
Y27508D01*
X41056D01*
X41223Y27675D01*
Y28341D01*
X41056Y28508D01*
X40557D01*
X118548Y28697D02*
X118381Y28863D01*
X118048D01*
X117881Y28697D01*
Y28030D01*
X118048Y27864D01*
X118381D01*
X118548Y28030D01*
Y28364D01*
X118215D01*
X118881Y27864D02*
Y28863D01*
X119548Y27864D01*
Y28863D01*
X119881D02*
Y27864D01*
X120381D01*
X120547Y28030D01*
Y28697D01*
X120381Y28863D01*
X119881D01*
X131069Y69266D02*
X130903Y69432D01*
Y69766D01*
X131069Y69932D01*
X131236D01*
X131402Y69766D01*
Y69599D01*
Y69766D01*
X131569Y69932D01*
X131736D01*
X131902Y69766D01*
Y69432D01*
X131736Y69266D01*
X130903Y70265D02*
X131569D01*
X131902Y70599D01*
X131569Y70932D01*
X130903D01*
X131069Y71265D02*
X130903Y71432D01*
Y71765D01*
X131069Y71932D01*
X131236D01*
X131402Y71765D01*
Y71598D01*
Y71765D01*
X131569Y71932D01*
X131736D01*
X131902Y71765D01*
Y71432D01*
X131736Y71265D01*
X102921Y27356D02*
Y28355D01*
X103421D01*
X103587Y28189D01*
Y27856D01*
X103421Y27689D01*
X102921D01*
X103254D02*
X103587Y27356D01*
X104587Y28355D02*
X103920D01*
Y27356D01*
X104587D01*
X103920Y27856D02*
X104254D01*
X105587Y28189D02*
X105420Y28355D01*
X105087D01*
X104920Y28189D01*
Y28022D01*
X105087Y27856D01*
X105420D01*
X105587Y27689D01*
Y27522D01*
X105420Y27356D01*
X105087D01*
X104920Y27522D01*
X106586Y28355D02*
X105920D01*
Y27356D01*
X106586D01*
X105920Y27856D02*
X106253D01*
X106920Y28355D02*
X107586D01*
X107253D01*
Y27356D01*
X39345Y48362D02*
Y49028D01*
X39678Y49361D01*
X40011Y49028D01*
Y48362D01*
Y48861D01*
X39345D01*
X40344Y48362D02*
Y49028D01*
X40844D01*
X41011Y48861D01*
Y48362D01*
X41511Y49195D02*
Y49028D01*
X41344D01*
X41677D01*
X41511D01*
Y48528D01*
X41677Y48362D01*
X42677D02*
X42344D01*
X42177Y48528D01*
Y48861D01*
X42344Y49028D01*
X42677D01*
X42843Y48861D01*
Y48695D01*
X42177D01*
X43177Y48362D02*
Y49028D01*
X43677D01*
X43843Y48861D01*
Y48362D01*
X44176D02*
Y49028D01*
X44676D01*
X44843Y48861D01*
Y48362D01*
X45676D02*
X45343D01*
X45176Y48528D01*
Y48861D01*
X45343Y49028D01*
X45676D01*
X45842Y48861D01*
Y48695D01*
X45176D01*
X27365Y85516D02*
Y86182D01*
X26365D01*
Y85516D01*
X26865Y86182D02*
Y85849D01*
X26365Y85183D02*
X27032D01*
Y85016D01*
X26865Y84849D01*
X26365D01*
X26865D01*
X27032Y84683D01*
X26865Y84516D01*
X26365D01*
Y84183D02*
Y83850D01*
Y84016D01*
X27032D01*
Y84183D01*
X26365Y83350D02*
Y82850D01*
X26532Y82683D01*
X26698Y82850D01*
Y83183D01*
X26865Y83350D01*
X27032Y83183D01*
Y82683D01*
X26365Y82350D02*
Y81850D01*
X26532Y81684D01*
X26698Y81850D01*
Y82183D01*
X26865Y82350D01*
X27032Y82183D01*
Y81684D01*
X26365Y81350D02*
Y81017D01*
Y81184D01*
X27032D01*
Y81350D01*
X26365Y80351D02*
Y80018D01*
X26532Y79851D01*
X26865D01*
X27032Y80018D01*
Y80351D01*
X26865Y80517D01*
X26532D01*
X26365Y80351D01*
Y79518D02*
X27032D01*
Y79018D01*
X26865Y78851D01*
X26365D01*
X27365Y99695D02*
X26365D01*
Y99029D01*
X27198Y98029D02*
X27365Y98195D01*
Y98529D01*
X27198Y98695D01*
X26532D01*
X26365Y98529D01*
Y98195D01*
X26532Y98029D01*
X27365Y97696D02*
X26365D01*
Y97196D01*
X26532Y97029D01*
X27198D01*
X27365Y97196D01*
Y97696D01*
X28118Y86233D02*
X29117D01*
Y85733D01*
X28951Y85567D01*
X28618D01*
X28451Y85733D01*
Y86233D01*
X28784Y85233D02*
X28284D01*
X28118Y85067D01*
Y84567D01*
X28784D01*
X28118Y84234D02*
Y83900D01*
Y84067D01*
X28784D01*
Y84234D01*
X28118Y83401D02*
Y82901D01*
X28284Y82734D01*
X28451Y82901D01*
Y83234D01*
X28618Y83401D01*
X28784Y83234D01*
Y82734D01*
X28118Y82401D02*
Y81901D01*
X28284Y81734D01*
X28451Y81901D01*
Y82234D01*
X28618Y82401D01*
X28784Y82234D01*
Y81734D01*
Y81235D02*
Y80901D01*
X28618Y80735D01*
X28118D01*
Y81235D01*
X28284Y81401D01*
X28451Y81235D01*
Y80735D01*
X28118Y80402D02*
X28784D01*
Y79902D01*
X28618Y79735D01*
X28118D01*
X28784Y78735D02*
Y79235D01*
X28618Y79402D01*
X28284D01*
X28118Y79235D01*
Y78735D01*
Y77902D02*
Y78236D01*
X28284Y78402D01*
X28618D01*
X28784Y78236D01*
Y77902D01*
X28618Y77736D01*
X28451D01*
Y78402D01*
X29052Y98927D02*
X29219Y99094D01*
Y99427D01*
X29052Y99593D01*
X28386D01*
X28219Y99427D01*
Y99094D01*
X28386Y98927D01*
X28219Y98427D02*
Y98094D01*
X28386Y97927D01*
X28719D01*
X28886Y98094D01*
Y98427D01*
X28719Y98594D01*
X28386D01*
X28219Y98427D01*
Y97594D02*
X28886D01*
Y97094D01*
X28719Y96928D01*
X28219D01*
X29052Y96428D02*
X28886D01*
Y96594D01*
Y96261D01*
Y96428D01*
X28386D01*
X28219Y96261D01*
X28886Y95761D02*
X28219D01*
X28553D01*
X28719Y95595D01*
X28886Y95428D01*
Y95261D01*
Y94595D02*
Y94262D01*
X28719Y94095D01*
X28219D01*
Y94595D01*
X28386Y94762D01*
X28553Y94595D01*
Y94095D01*
X28219Y93762D02*
Y93262D01*
X28386Y93095D01*
X28553Y93262D01*
Y93595D01*
X28719Y93762D01*
X28886Y93595D01*
Y93095D01*
X29052Y92596D02*
X28886D01*
Y92762D01*
Y92429D01*
Y92596D01*
X28386D01*
X28219Y92429D01*
Y91429D02*
Y91763D01*
X28386Y91929D01*
X28719D01*
X28886Y91763D01*
Y91429D01*
X28719Y91263D01*
X28553D01*
Y91929D01*
D58*
X40717Y88430D02*
X116917D01*
X40717D02*
Y121030D01*
X116917D01*
Y88430D02*
Y121030D01*
X40317Y81230D02*
Y128230D01*
Y81230D02*
X117317D01*
Y128230D01*
X40317D02*
X117317D01*
X70180Y27534D02*
X70688D01*
X70434D01*
Y29057D01*
X70180Y28803D01*
X71450D02*
X71704Y29057D01*
X72212D01*
X72465Y28803D01*
Y28549D01*
X72212Y28295D01*
X72465Y28041D01*
Y27788D01*
X72212Y27534D01*
X71704D01*
X71450Y27788D01*
Y28041D01*
X71704Y28295D01*
X71450Y28549D01*
Y28803D01*
X71704Y28295D02*
X72212D01*
X72973Y27534D02*
X73481D01*
X73227D01*
Y29057D01*
X72973Y28803D01*
X74243Y27788D02*
X74497Y27534D01*
X75005D01*
X75259Y27788D01*
Y28803D01*
X75005Y29057D01*
X74497D01*
X74243Y28803D01*
Y28549D01*
X74497Y28295D01*
X75259D01*
X75766Y28803D02*
X76020Y29057D01*
X76528D01*
X76782Y28803D01*
Y27788D01*
X76528Y27534D01*
X76020D01*
X75766Y27788D01*
Y28803D01*
X77290Y27534D02*
Y28549D01*
X77798Y29057D01*
X78306Y28549D01*
Y27534D01*
Y28295D01*
X77290D01*
X47498Y28981D02*
X46990D01*
X47244D01*
Y27711D01*
X46990Y27457D01*
X46736D01*
X46482Y27711D01*
X48006Y28473D02*
Y27711D01*
X48259Y27457D01*
X49021D01*
Y28473D01*
X49529Y27457D02*
X50037D01*
X49783D01*
Y28981D01*
X49529D01*
X50799Y27457D02*
X51306D01*
X51053D01*
Y28473D01*
X50799D01*
X52830Y27457D02*
X52322D01*
X52068Y27711D01*
Y28219D01*
X52322Y28473D01*
X52830D01*
X53084Y28219D01*
Y27965D01*
X52068D01*
X56131Y28727D02*
X55877Y28981D01*
X55369D01*
X55115Y28727D01*
Y27711D01*
X55369Y27457D01*
X55877D01*
X56131Y27711D01*
X56639Y28473D02*
Y27711D01*
X56893Y27457D01*
X57654D01*
Y28473D01*
X58162Y27457D02*
X58670D01*
X58416D01*
Y28981D01*
X58162D01*
X59686Y28473D02*
X60194D01*
X60447Y28219D01*
Y27457D01*
X59686D01*
X59432Y27711D01*
X59686Y27965D01*
X60447D01*
X60955Y27457D02*
Y28473D01*
X61717D01*
X61971Y28219D01*
Y27457D01*
X63494Y28981D02*
Y27457D01*
X62733D01*
X62479Y27711D01*
Y28219D01*
X62733Y28473D01*
X63494D01*
X47548Y31623D02*
X46533D01*
Y30099D01*
X47548D01*
X46533Y30861D02*
X47041D01*
X48056Y30099D02*
Y31115D01*
X48310D01*
X48564Y30861D01*
Y30099D01*
Y30861D01*
X48818Y31115D01*
X49072Y30861D01*
Y30099D01*
X49580D02*
Y31115D01*
X49834D01*
X50088Y30861D01*
Y30099D01*
Y30861D01*
X50342Y31115D01*
X50595Y30861D01*
Y30099D01*
X51865D02*
X51357D01*
X51103Y30353D01*
Y30861D01*
X51357Y31115D01*
X51865D01*
X52119Y30861D01*
Y30607D01*
X51103D01*
X52881Y31369D02*
Y31115D01*
X52627D01*
X53135D01*
X52881D01*
Y30353D01*
X53135Y30099D01*
X54150Y31369D02*
Y31115D01*
X53896D01*
X54404D01*
X54150D01*
Y30353D01*
X54404Y30099D01*
X55928D02*
X55420D01*
X55166Y30353D01*
Y30861D01*
X55420Y31115D01*
X55928D01*
X56182Y30861D01*
Y30607D01*
X55166D01*
X56690Y31115D02*
Y30353D01*
X56943Y30099D01*
X57705D01*
Y31115D01*
X58213D02*
Y30099D01*
Y30607D01*
X58467Y30861D01*
X58721Y31115D01*
X58975D01*
X61260Y31623D02*
Y30099D01*
X62022D01*
X62276Y30353D01*
Y31369D01*
X62022Y31623D01*
X61260D01*
X63799Y31369D02*
X63545Y31623D01*
X63037D01*
X62784Y31369D01*
Y30353D01*
X63037Y30099D01*
X63545D01*
X63799Y30353D01*
X65323Y31623D02*
X64307D01*
Y30861D01*
X64815D01*
X64307D01*
Y30099D01*
X67354D02*
X67862D01*
X67608D01*
Y31623D01*
X67354Y31369D01*
X68624D02*
X68878Y31623D01*
X69385D01*
X69639Y31369D01*
Y31115D01*
X69385Y30861D01*
X69639Y30607D01*
Y30353D01*
X69385Y30099D01*
X68878D01*
X68624Y30353D01*
Y30607D01*
X68878Y30861D01*
X68624Y31115D01*
Y31369D01*
X68878Y30861D02*
X69385D01*
X70147Y30099D02*
X70655D01*
X70401D01*
Y31623D01*
X70147Y31369D01*
X71417Y30353D02*
X71671Y30099D01*
X72178D01*
X72432Y30353D01*
Y31369D01*
X72178Y31623D01*
X71671D01*
X71417Y31369D01*
Y31115D01*
X71671Y30861D01*
X72432D01*
D59*
X74701Y39852D02*
Y38837D01*
X75040Y39175D01*
X75379Y38837D01*
Y39852D01*
X75717Y39683D02*
X75886Y39852D01*
X76225D01*
X76394Y39683D01*
Y39514D01*
X76225Y39344D01*
X76056D01*
X76225D01*
X76394Y39175D01*
Y39006D01*
X76225Y38837D01*
X75886D01*
X75717Y39006D01*
X68377Y39827D02*
Y38811D01*
X68715Y39150D01*
X69054Y38811D01*
Y39827D01*
X70070Y38811D02*
X69392D01*
X70070Y39488D01*
Y39658D01*
X69900Y39827D01*
X69562D01*
X69392Y39658D01*
X62103Y39801D02*
Y38786D01*
X62442Y39124D01*
X62780Y38786D01*
Y39801D01*
X63119Y38786D02*
X63457D01*
X63288D01*
Y39801D01*
X63119Y39632D01*
X52172Y38659D02*
Y39674D01*
X52679D01*
X52849Y39505D01*
Y39167D01*
X52679Y38997D01*
X52172D01*
X53357Y38659D02*
X53695D01*
X53864Y38828D01*
Y39167D01*
X53695Y39336D01*
X53357D01*
X53187Y39167D01*
Y38828D01*
X53357Y38659D01*
X54203D02*
X54711D01*
X54880Y38828D01*
X54711Y38997D01*
X54372D01*
X54203Y39167D01*
X54372Y39336D01*
X54880D01*
X55219Y38659D02*
X55557D01*
X55388D01*
Y39336D01*
X55219D01*
X56234Y39505D02*
Y39336D01*
X56065D01*
X56404D01*
X56234D01*
Y38828D01*
X56404Y38659D01*
X56911D02*
X57250D01*
X57081D01*
Y39336D01*
X56911D01*
X57927Y38659D02*
X58266D01*
X58435Y38828D01*
Y39167D01*
X58266Y39336D01*
X57927D01*
X57758Y39167D01*
Y38828D01*
X57927Y38659D01*
X58773D02*
Y39336D01*
X59281D01*
X59451Y39167D01*
Y38659D01*
D60*
X45624Y75814D02*
X45458Y75980D01*
X45125D01*
X44958Y75814D01*
Y75647D01*
X45125Y75481D01*
X45458D01*
X45624Y75314D01*
Y75147D01*
X45458Y74981D01*
X45125D01*
X44958Y75147D01*
X45958Y74981D02*
X46291D01*
X46124D01*
Y75980D01*
X45958Y75814D01*
X69113Y42884D02*
Y41885D01*
X69447Y42218D01*
X69780Y41885D01*
Y42884D01*
X70780Y41885D02*
X70113D01*
X70780Y42551D01*
Y42718D01*
X70613Y42884D01*
X70280D01*
X70113Y42718D01*
X56490Y71358D02*
X57156D01*
X56823D01*
Y70358D01*
X57489D02*
Y71358D01*
X57989D01*
X58156Y71191D01*
Y70858D01*
X57989Y70691D01*
X57489D01*
X58989Y70358D02*
Y71358D01*
X58489Y70858D01*
X59155D01*
X128794Y89814D02*
Y90481D01*
Y90148D01*
X129794D01*
Y90814D02*
X128794D01*
Y91314D01*
X128961Y91481D01*
X129294D01*
X129461Y91314D01*
Y90814D01*
X129627Y91814D02*
X129794Y91980D01*
Y92314D01*
X129627Y92480D01*
X128961D01*
X128794Y92314D01*
Y91980D01*
X128961Y91814D01*
X129128D01*
X129294Y91980D01*
Y92480D01*
X38608Y33715D02*
X39274D01*
X38941D01*
Y32715D01*
X39608D02*
Y33715D01*
X40108D01*
X40274Y33548D01*
Y33215D01*
X40108Y33048D01*
X39608D01*
X40607Y33548D02*
X40774Y33715D01*
X41107D01*
X41274Y33548D01*
Y33382D01*
X41107Y33215D01*
X41274Y33048D01*
Y32882D01*
X41107Y32715D01*
X40774D01*
X40607Y32882D01*
Y33048D01*
X40774Y33215D01*
X40607Y33382D01*
Y33548D01*
X40774Y33215D02*
X41107D01*
X117856Y34070D02*
X118522D01*
X118189D01*
Y33071D01*
X118856D02*
Y34070D01*
X119356D01*
X119522Y33904D01*
Y33571D01*
X119356Y33404D01*
X118856D01*
X119855Y34070D02*
X120522D01*
Y33904D01*
X119855Y33237D01*
Y33071D01*
X128439Y73000D02*
Y73666D01*
Y73333D01*
X129438D01*
Y73999D02*
X128439D01*
Y74499D01*
X128605Y74666D01*
X128939D01*
X129105Y74499D01*
Y73999D01*
X128439Y75665D02*
X128605Y75332D01*
X128939Y74999D01*
X129272D01*
X129438Y75166D01*
Y75499D01*
X129272Y75665D01*
X129105D01*
X128939Y75499D01*
Y74999D01*
X79197Y71561D02*
X79864D01*
X79530D01*
Y70561D01*
X80197D02*
Y71561D01*
X80697D01*
X80863Y71394D01*
Y71061D01*
X80697Y70894D01*
X80197D01*
X81863Y71561D02*
X81197D01*
Y71061D01*
X81530Y71228D01*
X81696D01*
X81863Y71061D01*
Y70728D01*
X81696Y70561D01*
X81363D01*
X81197Y70728D01*
X72339Y71535D02*
X73006D01*
X72672D01*
Y70536D01*
X73339D02*
Y71535D01*
X73839D01*
X74005Y71369D01*
Y71036D01*
X73839Y70869D01*
X73339D01*
X74339Y71369D02*
X74505Y71535D01*
X74838D01*
X75005Y71369D01*
Y71202D01*
X74838Y71036D01*
X74672D01*
X74838D01*
X75005Y70869D01*
Y70702D01*
X74838Y70536D01*
X74505D01*
X74339Y70702D01*
X67767Y50911D02*
X68434D01*
X68100D01*
Y49911D01*
X68767D02*
Y50911D01*
X69267D01*
X69433Y50744D01*
Y50411D01*
X69267Y50244D01*
X68767D01*
X70433Y49911D02*
X69767D01*
X70433Y50577D01*
Y50744D01*
X70266Y50911D01*
X69933D01*
X69767Y50744D01*
X56617Y65973D02*
X57283D01*
X56950D01*
Y64973D01*
X57616D02*
Y65973D01*
X58116D01*
X58283Y65806D01*
Y65473D01*
X58116Y65306D01*
X57616D01*
X58616Y64973D02*
X58949D01*
X58783D01*
Y65973D01*
X58616Y65806D01*
X123469Y103657D02*
Y104657D01*
X123969D01*
X124136Y104490D01*
Y104157D01*
X123969Y103991D01*
X123469D01*
X123803D02*
X124136Y103657D01*
X124469Y104490D02*
X124636Y104657D01*
X124969D01*
X125136Y104490D01*
Y104324D01*
X124969Y104157D01*
X125136Y103991D01*
Y103824D01*
X124969Y103657D01*
X124636D01*
X124469Y103824D01*
Y103991D01*
X124636Y104157D01*
X124469Y104324D01*
Y104490D01*
X124636Y104157D02*
X124969D01*
X119913Y98069D02*
Y99069D01*
X120413D01*
X120579Y98902D01*
Y98569D01*
X120413Y98403D01*
X119913D01*
X120246D02*
X120579Y98069D01*
X120912Y99069D02*
X121579D01*
Y98902D01*
X120912Y98236D01*
Y98069D01*
X120980Y122453D02*
Y123453D01*
X121480D01*
X121647Y123286D01*
Y122953D01*
X121480Y122787D01*
X120980D01*
X121313D02*
X121647Y122453D01*
X122646Y123453D02*
X122313Y123286D01*
X121980Y122953D01*
Y122620D01*
X122146Y122453D01*
X122480D01*
X122646Y122620D01*
Y122787D01*
X122480Y122953D01*
X121980D01*
X119355Y111709D02*
Y112709D01*
X119854D01*
X120021Y112542D01*
Y112209D01*
X119854Y112042D01*
X119355D01*
X119688D02*
X120021Y111709D01*
X120354D02*
X120688D01*
X120521D01*
Y112709D01*
X120354Y112542D01*
X120554Y127979D02*
Y128646D01*
X120388Y128812D01*
X120055D01*
X119888Y128646D01*
Y127979D01*
X120055Y127813D01*
X120388D01*
X120221Y128146D02*
X120554Y127813D01*
X120388D02*
X120554Y127979D01*
X121554Y127813D02*
X120888D01*
X121554Y128479D01*
Y128646D01*
X121388Y128812D01*
X121054D01*
X120888Y128646D01*
X124441Y108675D02*
Y109342D01*
X124274Y109508D01*
X123941D01*
X123774Y109342D01*
Y108675D01*
X123941Y108509D01*
X124274D01*
X124107Y108842D02*
X124441Y108509D01*
X124274D02*
X124441Y108675D01*
X124774Y109342D02*
X124940Y109508D01*
X125274D01*
X125440Y109342D01*
Y109175D01*
X125274Y109009D01*
X125107D01*
X125274D01*
X125440Y108842D01*
Y108675D01*
X125274Y108509D01*
X124940D01*
X124774Y108675D01*
X123196Y119724D02*
Y120391D01*
X123029Y120557D01*
X122696D01*
X122530Y120391D01*
Y119724D01*
X122696Y119558D01*
X123029D01*
X122863Y119891D02*
X123196Y119558D01*
X123029D02*
X123196Y119724D01*
X123529Y119558D02*
X123863D01*
X123696D01*
Y120557D01*
X123529Y120391D01*
X58293Y42859D02*
Y41859D01*
X58626Y42192D01*
X58959Y41859D01*
Y42859D01*
X59293Y42692D02*
X59459Y42859D01*
X59793D01*
X59959Y42692D01*
Y42526D01*
X59793Y42359D01*
X59626D01*
X59793D01*
X59959Y42192D01*
Y42026D01*
X59793Y41859D01*
X59459D01*
X59293Y42026D01*
X49124Y42833D02*
Y41834D01*
X49457Y42167D01*
X49790Y41834D01*
Y42833D01*
X50123Y41834D02*
X50457D01*
X50290D01*
Y42833D01*
X50123Y42667D01*
X31217Y87944D02*
Y87277D01*
X31550Y86944D01*
X31883Y87277D01*
Y87944D01*
X32216Y86944D02*
Y87944D01*
X32716D01*
X32883Y87777D01*
Y87444D01*
X32716Y87277D01*
X32216D01*
X32549D02*
X32883Y86944D01*
X33882D02*
X33216D01*
X33882Y87611D01*
Y87777D01*
X33716Y87944D01*
X33383D01*
X33216Y87777D01*
X31191Y101380D02*
Y100714D01*
X31524Y100381D01*
X31858Y100714D01*
Y101380D01*
X32191Y100381D02*
Y101380D01*
X32691D01*
X32857Y101214D01*
Y100881D01*
X32691Y100714D01*
X32191D01*
X32524D02*
X32857Y100381D01*
X33191D02*
X33524D01*
X33357D01*
Y101380D01*
X33191Y101214D01*
X103155Y36571D02*
X102989Y36737D01*
X102656D01*
X102489Y36571D01*
Y36404D01*
X102656Y36238D01*
X102989D01*
X103155Y36071D01*
Y35904D01*
X102989Y35738D01*
X102656D01*
X102489Y35904D01*
X104155Y36737D02*
X103489D01*
Y36238D01*
X103822Y36404D01*
X103989D01*
X104155Y36238D01*
Y35904D01*
X103989Y35738D01*
X103655D01*
X103489Y35904D01*
X103613Y75865D02*
X103446Y76031D01*
X103113D01*
X102946Y75865D01*
Y75698D01*
X103113Y75531D01*
X103446D01*
X103613Y75365D01*
Y75198D01*
X103446Y75032D01*
X103113D01*
X102946Y75198D01*
X104446Y75032D02*
Y76031D01*
X103946Y75531D01*
X104612D01*
X83724Y75865D02*
X83558Y76031D01*
X83225D01*
X83058Y75865D01*
Y75698D01*
X83225Y75531D01*
X83558D01*
X83724Y75365D01*
Y75198D01*
X83558Y75032D01*
X83225D01*
X83058Y75198D01*
X84058Y75865D02*
X84224Y76031D01*
X84558D01*
X84724Y75865D01*
Y75698D01*
X84558Y75531D01*
X84391D01*
X84558D01*
X84724Y75365D01*
Y75198D01*
X84558Y75032D01*
X84224D01*
X84058Y75198D01*
X64446Y76017D02*
X64279Y76184D01*
X63946D01*
X63779Y76017D01*
Y75850D01*
X63946Y75684D01*
X64279D01*
X64446Y75517D01*
Y75351D01*
X64279Y75184D01*
X63946D01*
X63779Y75351D01*
X65446Y75184D02*
X64779D01*
X65446Y75850D01*
Y76017D01*
X65279Y76184D01*
X64946D01*
X64779Y76017D01*
X84760Y38710D02*
Y39709D01*
X85260D01*
X85426Y39543D01*
Y39209D01*
X85260Y39043D01*
X84760D01*
X85093D02*
X85426Y38710D01*
X85759D02*
X86093D01*
X85926D01*
Y39709D01*
X85759Y39543D01*
X86593D02*
X86759Y39709D01*
X87092D01*
X87259Y39543D01*
Y38876D01*
X87092Y38710D01*
X86759D01*
X86593Y38876D01*
Y39543D01*
X88748Y33884D02*
Y34883D01*
X89247D01*
X89414Y34717D01*
Y34383D01*
X89247Y34217D01*
X88748D01*
X89081D02*
X89414Y33884D01*
X89747Y34050D02*
X89914Y33884D01*
X90247D01*
X90414Y34050D01*
Y34717D01*
X90247Y34883D01*
X89914D01*
X89747Y34717D01*
Y34550D01*
X89914Y34383D01*
X90414D01*
X111227Y76276D02*
Y77276D01*
X111726D01*
X111893Y77109D01*
Y76776D01*
X111726Y76609D01*
X111227D01*
X111560D02*
X111893Y76276D01*
X112893Y77276D02*
X112226D01*
Y76776D01*
X112560Y76943D01*
X112726D01*
X112893Y76776D01*
Y76443D01*
X112726Y76276D01*
X112393D01*
X112226Y76443D01*
X91237Y76327D02*
Y77327D01*
X91737D01*
X91903Y77160D01*
Y76827D01*
X91737Y76660D01*
X91237D01*
X91570D02*
X91903Y76327D01*
X92736D02*
Y77327D01*
X92236Y76827D01*
X92903D01*
X71755Y76124D02*
Y77123D01*
X72255D01*
X72421Y76957D01*
Y76624D01*
X72255Y76457D01*
X71755D01*
X72088D02*
X72421Y76124D01*
X72755Y76957D02*
X72921Y77123D01*
X73255D01*
X73421Y76957D01*
Y76790D01*
X73255Y76624D01*
X73088D01*
X73255D01*
X73421Y76457D01*
Y76290D01*
X73255Y76124D01*
X72921D01*
X72755Y76290D01*
X53061Y76251D02*
Y77250D01*
X53560D01*
X53727Y77084D01*
Y76751D01*
X53560Y76584D01*
X53061D01*
X53394D02*
X53727Y76251D01*
X54727D02*
X54060D01*
X54727Y76917D01*
Y77084D01*
X54560Y77250D01*
X54227D01*
X54060Y77084D01*
X124003Y101498D02*
Y102498D01*
X124503D01*
X124669Y102331D01*
Y101998D01*
X124503Y101832D01*
X124003D01*
X125002Y101498D02*
X125336D01*
X125169D01*
Y102498D01*
X125002Y102331D01*
X39681Y60004D02*
X39348D01*
X39514D01*
Y59171D01*
X39348Y59004D01*
X39181D01*
X39014Y59171D01*
X40014Y59004D02*
X40347D01*
X40181D01*
Y60004D01*
X40014Y59837D01*
X40361Y130057D02*
Y129057D01*
Y129557D01*
X41027D01*
Y130057D01*
Y129057D01*
X41360D02*
X41694D01*
X41527D01*
Y130057D01*
X41360Y129890D01*
X92767Y39492D02*
X92600Y39658D01*
X92267D01*
X92100Y39492D01*
Y38825D01*
X92267Y38659D01*
X92600D01*
X92767Y38825D01*
X93100D02*
X93267Y38659D01*
X93600D01*
X93767Y38825D01*
Y39492D01*
X93600Y39658D01*
X93267D01*
X93100Y39492D01*
Y39325D01*
X93267Y39159D01*
X93767D01*
%TF.MD5,ea81ba579bfcb4fcb622dc0e309c1828*%
M02*
