M48
;Layer_Color=9474304
;FILE_FORMAT=4:3
METRIC,LZ
;TYPE=PLATED
T1F00S00C0.300
T2F00S00C0.350
T3F00S00C0.750
T4F00S00C0.890
T5F00S00C0.900
T6F00S00C1.000
T7F00S00C1.020
T8F00S00C1.300
T9F00S00C1.570
T10F00S00C3.730
T11F00S00C4.000
;TYPE=NON_PLATED
T12F00S00C3.250
%
T01
X009398Y0044475
X0099085Y004445
X0104242Y0049794
X0102006Y0058776
X0105943Y0063551
X0106858Y0062992
X0107569Y0062281
X0095021Y0065608
X0093193Y0068529
X0091823Y0072517
X0093472Y0077216
X0097663Y0074524
X0098679Y0074473
X0099746Y0074371
X010066
X0100934Y0077876
X0099803Y0070917
X0099162Y0070206
X0090119Y0065375
X0088417Y0063602
X0087782Y0062967
X0087147Y0062332
X0085979Y0062636
X0086792Y0060313
X0088773Y0059487
Y0055397
X0089611Y005367
X0093294Y0052629
X0083388Y0067996
X0078816Y0066446
X0077724Y0063551
X007559Y0068072
X0069317Y0070714
X0069306Y0072034
X0071222Y0061214
Y0059411
X0071171Y0050546
X0062001Y0056718
X0063297Y0061595
X0057937Y006416
X0056871Y0069545
X0075667Y0089738
X0062992Y0104496
X0060477Y0108509
X0088849Y0090221
X0089651Y0089281
X0117297Y0081255
X011872Y0099797
X0125933Y0087274
T02
X0035789Y0027305
X0035662Y0035992
X0039954Y0029159
X0086589Y0028118
X0089535Y003876
X0094234Y0037541
X010094Y0034671
X0100929Y002921
X0119151Y0029642
X0123215Y0027254
X0131826Y0046863
X0122072Y0054712
X0122707Y0065888
X0123749Y0067081
X0125654Y0069444
X0122893Y0072382
X0121793
Y0073482
X0122893
Y0074582
X0121793
X0120693
Y0073482
Y0072382
X0119583Y0073558
X0123977
X0126477Y0078537
X0131826Y0066345
X0118518Y0063449
X010541Y0065375
X0099771Y0067005
X0100635Y006891
X0105359Y0073325
X0109906Y0073635
X0109931Y0071552
X0109093Y0077724
X0096774Y0075235
X0093036Y0078228
X0086538Y0078232
X0085395Y007333
X0085319Y006538
X0091415Y0064872
X0090983Y0059461
X0091971Y0057379
X0095529Y0055524
X0095521Y0054344
X0096521
Y0053344
X0095521
X0095555Y0052299
X0097663Y005334
Y0054344
X0097771Y0051257
X0101969Y0051511
X0100784Y0049014
X009619Y0047955
X0096521Y0045847
X0090932Y0047625
X0089459Y0049325
X0084633Y0049218
X0086741Y0046482
X0089992Y004445
X0090758Y0040742
X0099085Y0040361
X0108331Y0040437
X010493Y0044475
X0118518Y0044399
X0116256Y0041453
X0101129Y0057785
X0086792Y0058217
X0083515Y005486
X0079781Y0058522
X0079477Y0061798
X0072161Y0066116
X0066167Y0065507
X0062011Y0062853
X0066827Y0052899
X0071145Y0054889
X0073381Y005494
X00762Y0046228
X005842Y004826
X004412Y0052476
X0047193Y0065312
X0047269Y0073254
X0066497Y0073558
X0039395Y0073965
X002827Y007399
Y0056312
X0039395Y0062493
X0035458Y0044526
X0033274Y0096291
X0036017Y0113589
X0028042Y01111
X0051791Y011524
X0051486Y0104445
X0050851Y0091211
X004351Y009525
X0057734Y0080162
X007827Y0079728
X0069062Y0091465
X0067183Y0115138
X0084607Y011524
X0083693Y0105766
X00857Y0091389
X009779Y0089332
X0094771Y0085293
X0107772Y0084411
X011115Y009083
X0105207Y0105766
X0109499Y0115672
X012352Y0107137
X0122401Y0102895
X0122606Y0089713
X0119939Y0079426
X0131547Y009464
Y0111277
X0119776Y0119532
X0122149Y0130734
X0102489Y0130912
X0099466Y0124511
X0083464Y013081
X0063271Y0130785
X0047142Y0130556
X0050317Y0124104
X0035839Y0122784
X0035789Y0130327
T03
X0034468Y0080051
X0037008Y0082591
X0031928
Y0096276
X0037008
X0034468Y0098816
T04
X0112678Y0049458
Y0051998
Y0054538
Y0057078
X0115218Y0058348
Y0055808
Y0053268
Y0050728
T05
X0124054Y0084633
Y0087173
Y0089713
Y0092253
Y0094793
Y0097333
Y0099873
T06
X0080797Y012573
X0083337
X0085877
X0088417
X0078257
X0075717
X0073177
X0070637
X0068097
X0065557
X0063017
X0060477
X0057937
X0055397
X0052857
X0050317
T07
X0125628Y0047278
Y0049818
Y0057988
Y0060528
X0077724Y0042342
X0075184
X0072644
X0064338Y0042316
X0061798
X0054788Y0042342
X0052248
T08
X0042469Y0052431
Y0055931
T09
X0118518Y0046158
Y0061648
T10
X003025Y0050495
Y0106985
X012825Y010698
T11
X0043817Y008473
X0113817
Y012473
X0043817
T12
X0121568Y0048188
Y0059618
M30
